<svg width="173" height="60" viewBox="0 0 173 60" fill="none" xmlns="http://www.w3.org/2000/svg">
<path fill-rule="evenodd" clip-rule="evenodd" d="M55.0851 21.3007V28.8927H47.3482V21.3007H44.0674V39.5913H47.3482V31.9993H55.0851V39.5913H58.3663V21.3007H55.0851Z" fill="#1C3553"/>
<mask id="mask0" mask-type="alpha" maskUnits="userSpaceOnUse" x="61" y="21" width="18" height="19">
<path fill-rule="evenodd" clip-rule="evenodd" d="M78.9562 39.8054H61.9355L61.9355 21.0859H78.9562V39.8054V39.8054Z" fill="white"/>
</mask>
<g mask="url(#mask0)">
<path fill-rule="evenodd" clip-rule="evenodd" d="M61.9355 30.4457C61.9355 28.9478 62.109 27.6338 62.4559 26.5011C62.8027 25.3695 63.2494 24.4669 63.7964 23.7938C64.3433 23.1207 65.0037 22.5726 65.7773 22.149C66.551 21.7255 67.3063 21.4429 68.0446 21.2999C68.783 21.1579 69.5789 21.0859 70.4326 21.0859C71.2862 21.0859 72.0817 21.1579 72.82 21.2999C73.5583 21.4429 74.3141 21.7255 75.0878 22.149C75.8615 22.5726 76.5262 23.1207 77.0818 23.7938C77.6375 24.4669 78.089 25.3695 78.4359 26.5011C78.7828 27.6338 78.9562 28.9478 78.9562 30.4457C78.9562 31.93 78.7828 33.2435 78.4359 34.3883C78.089 35.5326 77.6375 36.4377 77.0818 37.104C76.5262 37.7697 75.8615 38.3144 75.0878 38.7395C74.3141 39.1645 73.5583 39.448 72.82 39.591C72.0817 39.734 71.2862 39.8055 70.4326 39.8055C69.5789 39.8055 68.783 39.734 68.0446 39.591C67.3063 39.448 66.551 39.1645 65.7773 38.7395C65.0037 38.3144 64.3433 37.7697 63.7964 37.104C63.2494 36.4377 62.8027 35.5326 62.4559 34.3883C62.109 33.2435 61.9355 31.93 61.9355 30.4457ZM65.2168 30.419C65.2168 31.7914 65.3525 32.9269 65.6238 33.8266C65.8951 34.7263 66.2952 35.3877 66.8243 35.8108C67.3533 36.2339 67.8959 36.5213 68.4516 36.6731C69.0073 36.8243 69.6676 36.8997 70.4326 36.8997C71.0546 36.8997 71.5929 36.8603 72.0463 36.7796C72.5003 36.6993 72.9668 36.5277 73.4469 36.265C73.9275 36.0024 74.3184 35.6372 74.6208 35.1694C74.9231 34.7015 75.1745 34.0669 75.3746 33.2649C75.5747 32.4635 75.6745 31.5151 75.6745 30.419C75.6745 29.065 75.5388 27.9377 75.268 27.0385C74.9962 26.1388 74.5917 25.4769 74.0539 25.0543C73.5157 24.6312 72.9736 24.3482 72.4266 24.2057C71.8797 24.0632 71.215 23.9922 70.4326 23.9922C69.8275 23.9922 69.2989 24.0316 68.845 24.1123C68.3915 24.1926 67.9226 24.3662 67.4376 24.6332C66.9531 24.9007 66.5617 25.2615 66.2642 25.7152C65.9658 26.17 65.7173 26.7934 65.5172 27.5866C65.3171 28.3793 65.2168 29.3238 65.2168 30.419Z" fill="#1C3553"/>
</g>
<path fill-rule="evenodd" clip-rule="evenodd" d="M96.7379 21.3007L91.4689 28.9462L86.2003 21.3007H82.5586V39.5913H85.8399V26.0672L91.4689 34.1552L97.0978 26.0672V39.5913H100.38V21.3007H96.7379Z" fill="#1C3553"/>
<path fill-rule="evenodd" clip-rule="evenodd" d="M105.242 21.3007V39.5913H117.367V36.6316H108.523V31.9993H116.193V28.8927H108.523V24.2595H117.367V21.3007H105.242Z" fill="#1C3553"/>
<path fill-rule="evenodd" clip-rule="evenodd" d="M121.99 39.5912V21.3006H128.279C131.1 21.3006 133.24 22.0768 134.7 23.6301C136.16 25.1834 136.89 27.4599 136.89 30.459C136.89 33.4407 136.162 35.7079 134.707 37.2612C133.252 38.8146 131.109 39.5912 128.279 39.5912H121.99ZM125.272 36.6319H128.273C130.167 36.6319 131.53 36.15 132.361 35.1861C133.192 34.2222 133.609 32.647 133.609 30.459C133.609 28.2536 133.192 26.6696 132.361 25.7052C131.53 24.7413 130.167 24.2594 128.273 24.2594H125.272V36.6319Z" fill="#1C3553"/>
<path fill-rule="evenodd" clip-rule="evenodd" d="M145.036 21.3007L137.793 39.5913H141.315L142.982 35.1726H150.692L152.359 39.5913H155.88L148.637 21.3007H145.036ZM146.837 25.0361L149.545 32.2133H144.102L146.837 25.0361Z" fill="#1C3553"/>
<path fill-rule="evenodd" clip-rule="evenodd" d="M167.354 21.3007L162.552 28.7317L157.724 21.3007H153.762L160.912 31.7445V39.5913H164.193V31.7445L171.316 21.3007H167.354Z" fill="#1C3553"/>
<mask id="mask1" mask-type="alpha" maskUnits="userSpaceOnUse" x="0" y="0" width="32" height="40">
<path fill-rule="evenodd" clip-rule="evenodd" d="M0 0.486374V39.5926H31.9424V0.486374H0H0Z" fill="white"/>
</mask>
<g mask="url(#mask1)">
<path fill-rule="evenodd" clip-rule="evenodd" d="M13.627 23.6494C13.627 22.35 14.6768 21.2961 15.9713 21.2961H31.8535L31.9426 21.2066V15.5439C31.9426 14.8596 31.6471 14.2493 31.1825 13.8189H31.1932L17.5662 1.1147H17.556C17.1379 0.728076 16.5847 0.486374 15.9713 0.486374C15.358 0.486374 14.8047 0.728076 14.3871 1.1147H14.3765L0.749466 13.8189H0.760124C0.296007 14.2493 0 14.8596 0 15.5439V37.2393C0 38.5387 1.04983 39.5926 2.34481 39.5926H13.627V23.6494Z" fill="#1C3553"/>
</g>
<path fill-rule="evenodd" clip-rule="evenodd" d="M15.9713 21.2961C14.6768 21.2961 13.627 22.35 13.627 23.6494V39.5926L31.8535 21.2961H15.9713Z" fill="#5BA4FF"/>
<path d="M44.131 56H45.132V51.307C45.132 50.553 45.054 49.539 45.002 48.785H45.054L45.73 50.683L47.368 55.142H47.992L49.63 50.683L50.306 48.785H50.358C50.306 49.539 50.215 50.553 50.215 51.307V56H51.242V47.472H49.968L48.33 52.048L47.732 53.79H47.68L47.069 52.048L45.418 47.472H44.131V56ZM52.9798 52.854C52.9798 54.921 54.3188 56.156 56.0088 56.156C56.8668 56.156 57.5428 55.857 58.0888 55.506L57.7118 54.804C57.2438 55.103 56.7368 55.298 56.1388 55.298C54.9298 55.298 54.1108 54.44 54.0328 53.075H58.2968C58.3228 52.919 58.3358 52.711 58.3358 52.49C58.3358 50.683 57.4258 49.526 55.8138 49.526C54.3708 49.526 52.9798 50.787 52.9798 52.854ZM54.0198 52.373C54.1498 51.099 54.9558 50.371 55.8398 50.371C56.8278 50.371 57.3998 51.086 57.3998 52.373H54.0198ZM60.4431 48.382C60.8591 48.382 61.1841 48.096 61.1841 47.693C61.1841 47.277 60.8591 47.004 60.4431 47.004C60.0271 47.004 59.7021 47.277 59.7021 47.693C59.7021 48.096 60.0271 48.382 60.4431 48.382ZM59.8971 56H60.9631V49.682H59.8971V56ZM63.0963 56H64.1623V51.424C64.7993 50.787 65.2413 50.449 65.8913 50.449C66.7233 50.449 67.0873 50.956 67.0873 52.139V56H68.1533V51.996C68.1533 50.384 67.5553 49.526 66.2293 49.526C65.3583 49.526 64.7083 49.994 64.1103 50.592H64.0713L63.9803 49.682H63.0963V56ZM72.8986 56H73.9906V47.472H72.8986V56ZM76.1851 56H77.2511V51.424C77.8361 50.774 78.3691 50.449 78.8371 50.449C79.6431 50.449 80.0201 50.956 80.0201 52.139V56H81.0861V51.424C81.6711 50.774 82.1781 50.449 82.6721 50.449C83.4651 50.449 83.8421 50.956 83.8421 52.139V56H84.9081V51.996C84.9081 50.384 84.2841 49.526 82.9841 49.526C82.2171 49.526 81.5671 50.02 80.9041 50.735C80.6441 49.981 80.1241 49.526 79.1621 49.526C78.4081 49.526 77.7451 49.994 77.1991 50.592H77.1601L77.0691 49.682H76.1851V56ZM86.9635 56H88.0295V51.424C88.6145 50.774 89.1475 50.449 89.6155 50.449C90.4215 50.449 90.7985 50.956 90.7985 52.139V56H91.8645V51.424C92.4495 50.774 92.9565 50.449 93.4505 50.449C94.2435 50.449 94.6205 50.956 94.6205 52.139V56H95.6865V51.996C95.6865 50.384 95.0625 49.526 93.7625 49.526C92.9955 49.526 92.3455 50.02 91.6825 50.735C91.4225 49.981 90.9025 49.526 89.9405 49.526C89.1865 49.526 88.5235 49.994 87.9775 50.592H87.9385L87.8475 49.682H86.9635V56ZM97.2738 52.854C97.2738 54.947 98.6518 56.156 100.199 56.156C101.746 56.156 103.124 54.947 103.124 52.854C103.124 50.735 101.746 49.526 100.199 49.526C98.6518 49.526 97.2738 50.735 97.2738 52.854ZM98.3788 52.854C98.3788 51.398 99.1198 50.41 100.199 50.41C101.291 50.41 102.019 51.398 102.019 52.854C102.019 54.297 101.291 55.272 100.199 55.272C99.1198 55.272 98.3788 54.297 98.3788 52.854ZM104.788 56H105.646L105.737 55.376H105.776C106.335 55.87 106.998 56.156 107.583 56.156C109.026 56.156 110.313 54.895 110.313 52.737C110.313 50.787 109.442 49.526 107.804 49.526C107.102 49.526 106.4 49.903 105.828 50.41L105.854 49.266V46.744H104.788V56ZM105.854 54.596V51.281C106.452 50.722 107.011 50.423 107.544 50.423C108.74 50.423 109.208 51.359 109.208 52.75C109.208 54.31 108.441 55.259 107.401 55.259C106.985 55.259 106.413 55.077 105.854 54.596ZM112.545 48.382C112.961 48.382 113.286 48.096 113.286 47.693C113.286 47.277 112.961 47.004 112.545 47.004C112.129 47.004 111.804 47.277 111.804 47.693C111.804 48.096 112.129 48.382 112.545 48.382ZM111.999 56H113.065V49.682H111.999V56ZM115.198 54.726C115.198 55.649 115.523 56.156 116.329 56.156C116.615 56.156 116.797 56.117 116.94 56.052L116.797 55.246C116.68 55.272 116.628 55.272 116.563 55.272C116.407 55.272 116.264 55.142 116.264 54.804V46.744H115.198V54.726ZM119.057 48.382C119.473 48.382 119.798 48.096 119.798 47.693C119.798 47.277 119.473 47.004 119.057 47.004C118.641 47.004 118.316 47.277 118.316 47.693C118.316 48.096 118.641 48.382 119.057 48.382ZM118.511 56H119.577V49.682H118.511V56ZM121.243 52.854C121.243 54.921 122.582 56.156 124.272 56.156C125.13 56.156 125.806 55.857 126.352 55.506L125.975 54.804C125.507 55.103 125 55.298 124.402 55.298C123.193 55.298 122.374 54.44 122.296 53.075H126.56C126.586 52.919 126.599 52.711 126.599 52.49C126.599 50.683 125.689 49.526 124.077 49.526C122.634 49.526 121.243 50.787 121.243 52.854ZM122.283 52.373C122.413 51.099 123.219 50.371 124.103 50.371C125.091 50.371 125.663 51.086 125.663 52.373H122.283ZM128.16 56H129.226V51.424C129.863 50.787 130.305 50.449 130.955 50.449C131.787 50.449 132.151 50.956 132.151 52.139V56H133.217V51.996C133.217 50.384 132.619 49.526 131.293 49.526C130.422 49.526 129.772 49.994 129.174 50.592H129.135L129.044 49.682H128.16V56ZM135.269 56H136.335V51.424C136.92 50.774 137.453 50.449 137.921 50.449C138.727 50.449 139.104 50.956 139.104 52.139V56H140.17V51.424C140.755 50.774 141.262 50.449 141.756 50.449C142.549 50.449 142.926 50.956 142.926 52.139V56H143.992V51.996C143.992 50.384 143.368 49.526 142.068 49.526C141.301 49.526 140.651 50.02 139.988 50.735C139.728 49.981 139.208 49.526 138.246 49.526C137.492 49.526 136.829 49.994 136.283 50.592H136.244L136.153 49.682H135.269V56ZM145.735 54.362C145.735 55.493 146.528 56.156 147.594 56.156C148.374 56.156 149.076 55.74 149.687 55.246H149.713L149.804 56H150.688V52.126C150.688 50.553 150.038 49.526 148.491 49.526C147.477 49.526 146.593 49.968 146.008 50.345L146.437 51.086C146.931 50.748 147.581 50.41 148.322 50.41C149.349 50.41 149.622 51.19 149.622 51.996C146.931 52.295 145.735 52.984 145.735 54.362ZM146.788 54.284C146.788 53.478 147.503 52.958 149.622 52.698V54.453C149.011 54.999 148.504 55.298 147.893 55.298C147.269 55.298 146.788 54.999 146.788 54.284ZM152.7 56H153.753V54.336L154.936 52.958L156.782 56H157.952L155.547 52.217L157.666 49.682H156.483L153.792 53.01H153.753V46.744H152.7V56ZM159.136 54.726C159.136 55.649 159.461 56.156 160.267 56.156C160.553 56.156 160.735 56.117 160.878 56.052L160.735 55.246C160.618 55.272 160.566 55.272 160.501 55.272C160.345 55.272 160.202 55.142 160.202 54.804V46.744H159.136V54.726ZM161.982 52.854C161.982 54.921 163.321 56.156 165.011 56.156C165.869 56.156 166.545 55.857 167.091 55.506L166.714 54.804C166.246 55.103 165.739 55.298 165.141 55.298C163.932 55.298 163.113 54.44 163.035 53.075H167.299C167.325 52.919 167.338 52.711 167.338 52.49C167.338 50.683 166.428 49.526 164.816 49.526C163.373 49.526 161.982 50.787 161.982 52.854ZM163.022 52.373C163.152 51.099 163.958 50.371 164.842 50.371C165.83 50.371 166.402 51.086 166.402 52.373H163.022ZM168.899 56H169.965V51.944C170.394 50.878 171.031 50.488 171.564 50.488C171.824 50.488 171.967 50.527 172.175 50.592L172.383 49.656C172.175 49.565 171.98 49.526 171.707 49.526C170.992 49.526 170.342 50.033 169.913 50.826H169.874L169.783 49.682H168.899V56Z" fill="#1C3553"/>
</svg>
